<svg xmlns="http://www.w3.org/2000/svg" width="800" height="800" viewBox="0 0 800 800" version="1.1">
	<path d="M 97 17.099 C 85.095 18.259, 69.923 22.316, 60.500 26.858 C 36.802 38.281, 23.617 56.394, 16.721 87 L 14.581 96.500 14.243 384 C 14.011 581.139, 14.237 675.009, 14.963 682.665 C 19.646 732.041, 44.208 758.601, 92.203 766.188 C 98.914 767.249, 158.229 767.500, 402.500 767.500 C 688.261 767.500, 705.009 767.404, 713.961 765.714 C 736.049 761.543, 750.645 754.522, 763.082 742.083 C 778.786 726.377, 785.922 707.776, 788.052 677 C 788.791 666.331, 789.009 573.768, 788.753 380 C 788.407 117.727, 788.263 97.921, 786.648 90.020 C 777.346 44.517, 751.775 21.902, 704.144 17.054 C 691.608 15.778, 110.108 15.821, 97 17.099 M 91.520 19.115 C 49.308 25.262, 24.624 49.239, 17.590 90.926 C 16.161 99.395, 16.002 129.903, 16.020 391.426 C 16.033 579.079, 16.393 684.987, 17.035 689.500 C 20.483 713.751, 30.024 732.943, 44.774 745.295 C 55.066 753.915, 65.949 759.044, 83 763.312 L 91.500 765.439 396.299 765.734 C 663.505 765.992, 702.338 765.843, 711.157 764.524 C 733.909 761.122, 748.836 754.231, 762.138 740.987 C 769.616 733.541, 771.455 730.984, 775.837 721.943 C 781.310 710.650, 784.292 700.353, 785.947 687.026 C 786.662 681.271, 786.998 586.320, 786.994 391.026 C 786.989 142.867, 786.786 102.162, 785.515 93.725 C 781.938 69.993, 774.543 54.408, 760.666 41.355 C 751.538 32.769, 744.550 28.603, 732.205 24.387 C 712.202 17.557, 735.460 17.996, 400.500 18.126 C 233.850 18.191, 94.809 18.636, 91.520 19.115 M 290.500 117.378 C 288.850 118.130, 286.375 119.963, 285 121.452 L 282.500 124.159 282.219 167.570 C 281.909 215.619, 281.849 215.108, 288.299 219.040 C 294.081 222.567, 301.469 221.033, 305.912 215.385 C 307.957 212.785, 308 211.828, 308 169.315 C 308 122.510, 307.965 122.173, 302.697 118.721 C 299.130 116.384, 293.937 115.812, 290.500 117.378 M 155.759 134.006 C 151.867 137.898, 151.766 138.170, 152.216 143.588 L 152.678 149.165 180.589 177.148 C 195.940 192.539, 209.812 205.827, 211.416 206.677 C 215.935 209.073, 222.530 207.932, 226.372 204.090 C 229.180 201.281, 229.500 200.349, 229.500 194.967 L 229.500 188.972 199.965 159.486 L 170.431 130 165.098 130 C 160.208 130, 159.432 130.333, 155.759 134.006 M 560.935 144.469 C 553.910 146.237, 414.653 204.003, 406.320 208.606 C 382.819 221.587, 369.157 250.884, 374.354 277.158 C 375.437 282.633, 384.588 305.853, 406.473 358.658 C 423.305 399.271, 438.520 434.887, 440.283 437.805 C 453.861 460.272, 482.214 472.785, 507.799 467.601 C 513.850 466.375, 534.973 458.085, 588.252 436.025 C 627.989 419.573, 663.200 404.646, 666.500 402.854 C 675.393 398.025, 686.666 386.228, 691.685 376.500 C 693.955 372.100, 696.322 366.587, 696.945 364.249 C 700.110 352.370, 699.908 336.601, 696.461 326.500 C 692.002 313.433, 636.336 180.658, 632.765 174.573 C 625.200 161.681, 612.737 151.569, 597.835 146.232 C 591.733 144.046, 588.483 143.560, 578.500 143.337 C 570.674 143.162, 564.564 143.556, 560.935 144.469 M 567 170.373 C 560.813 172.192, 424.656 228.574, 418.712 231.778 C 412.501 235.126, 406.496 241.709, 403.160 248.825 C 400.809 253.841, 400.500 255.720, 400.500 265 L 400.500 275.500 430.357 347.500 C 446.779 387.100, 461.255 421.300, 462.527 423.500 C 467.677 432.406, 477.945 439.625, 488.639 441.858 C 493.469 442.867, 501.172 442.278, 507.347 440.428 C 514.841 438.183, 653.291 380.168, 656.687 377.849 C 661.965 374.246, 667.301 367.773, 670.231 361.420 C 672.110 357.345, 672.500 354.783, 672.500 346.500 L 672.500 336.500 642.643 264.500 C 626.221 224.900, 611.664 190.544, 610.294 188.153 C 603.967 177.115, 592.285 170.070, 579.249 169.430 C 574.613 169.203, 569.692 169.581, 567 170.373 M 553.595 223.266 C 551.447 224.495, 548.297 227.229, 546.595 229.343 C 543.767 232.854, 543.500 233.817, 543.500 240.500 C 543.500 247.153, 543.776 248.162, 546.558 251.657 C 556.226 263.806, 573.809 262.152, 580.110 248.500 C 587.766 231.912, 569.264 214.304, 553.595 223.266 M 146.418 260.969 C 145.274 261.432, 143.136 263.238, 141.668 264.982 C 139.566 267.481, 139 269.200, 139 273.091 C 139 277.319, 139.492 278.567, 142.422 281.765 L 145.845 285.500 189.413 285.781 C 237.636 286.091, 237.107 286.153, 241.040 279.701 C 244.755 273.609, 242.818 265.689, 236.701 261.960 C 233.654 260.102, 231.450 260.010, 191 260.067 C 167.625 260.100, 147.563 260.506, 146.418 260.969 M 463.500 261.400 C 459.883 262.994, 455.355 267.413, 453.336 271.318 C 450.814 276.194, 451.420 284.529, 454.679 289.790 C 458.725 296.322, 464.605 299.269, 472.630 298.788 C 483.437 298.140, 490.457 290.495, 490.485 279.342 C 490.498 274.102, 490.049 272.530, 487.487 268.840 C 482.176 261.191, 471.493 257.878, 463.500 261.400 M 592.975 314.250 C 590.374 315.565, 587.275 318.301, 585.513 320.836 C 582.881 324.625, 582.500 326.034, 582.500 331.993 C 582.500 338.111, 582.816 339.204, 585.558 342.592 C 591.043 349.369, 593.310 350.500, 601.409 350.500 C 607.771 350.500, 609.183 350.145, 612.800 347.638 C 625.361 338.934, 623.065 319.521, 608.768 313.548 C 603.579 311.380, 598.175 311.620, 592.975 314.250 M 183.500 339.482 C 175.132 341.327, 167.360 344.399, 161.145 348.318 C 154.078 352.774, 144.246 362.613, 140.302 369.177 C 136.647 375.259, 79.037 513.861, 75.742 524.500 C 72.974 533.434, 72.827 548.450, 75.413 558 C 79.835 574.333, 92.233 590.620, 106.029 598.220 C 114.967 603.144, 254.142 660.565, 262.046 662.590 C 266.865 663.825, 271.298 664.114, 279.974 663.759 C 292.746 663.236, 300.165 661.092, 310.717 654.877 C 318.468 650.312, 329.797 638.756, 333.669 631.467 C 337.259 624.707, 391.952 493.249, 395.640 482.515 C 401.797 464.597, 400.032 444.849, 390.780 428.166 C 386.867 421.108, 373.163 407.382, 366.500 403.847 C 355.758 398.146, 215.382 340.843, 208.733 339.444 C 200.416 337.694, 191.546 337.708, 183.500 339.482 M 503.007 352.593 C 495.524 355.838, 491 362.773, 491 371 C 491 378.889, 494.634 384.855, 501.500 388.237 C 511.478 393.151, 522.157 389.630, 527.603 379.630 C 536.092 364.042, 519.264 345.543, 503.007 352.593 M 187.500 365.411 C 179.594 367.373, 172.722 371.430, 167.352 377.305 C 162.631 382.471, 160.877 386.379, 131.531 457.118 C 101.230 530.159, 100.666 531.646, 100.220 539.591 C 99.419 553.859, 104.983 565.694, 116.033 573.227 C 122.086 577.354, 259.888 634.814, 268.939 636.985 C 284.433 640.702, 303.855 632.057, 310.814 618.345 C 314.533 611.017, 371.037 473.740, 372.145 469.340 C 372.757 466.908, 373.048 461.650, 372.792 457.655 C 371.950 444.533, 364.752 433.327, 353.252 427.232 C 345.964 423.370, 211.333 367.412, 206.267 366.140 C 199.416 364.420, 192.567 364.154, 187.500 365.411 M 207.500 402.207 C 192.825 407.336, 189.194 426.413, 201.002 436.348 C 210.393 444.250, 224.807 441.049, 230.403 429.818 C 231.831 426.952, 232.990 423.008, 232.978 421.054 C 232.929 413.177, 225.981 404.199, 218.277 402.060 C 213.719 400.794, 211.452 400.825, 207.500 402.207 M 304.843 441.975 C 292.425 445.726, 286.418 459.095, 292.249 470 C 295.609 476.284, 302.232 480.286, 309.272 480.286 C 321.410 480.286, 329.652 471.690, 328.801 459.919 C 328.232 452.055, 324.585 446.646, 317.686 443.434 C 312.317 440.934, 309.388 440.601, 304.843 441.975 M 178.264 464.558 C 170.187 469.399, 166.649 480.449, 170.347 489.282 C 174.757 499.816, 188.725 504.127, 198.710 498.036 C 205.794 493.715, 209.603 483.388, 207.011 475.533 C 205.441 470.775, 200.430 465.078, 196.298 463.351 C 190.951 461.117, 183.131 461.641, 178.264 464.558 M 276.481 503.394 C 274.821 504.117, 272.056 506.311, 270.337 508.269 C 262.059 517.697, 263.884 531.042, 274.371 537.781 C 279.710 541.211, 288.713 541.540, 293.894 538.495 C 303.221 533.013, 306.621 522.047, 301.972 512.442 C 298.771 505.829, 292.522 501.987, 285.054 502.039 C 281.999 502.061, 278.142 502.670, 276.481 503.394 M 520.882 524.882 C 517.411 528.353, 517 529.293, 517 533.747 C 517 537.286, 517.605 539.500, 519.088 541.385 C 523.528 547.029, 523.267 547, 569.302 547 L 611.704 547 615.088 544.720 C 619.731 541.590, 621.166 538.468, 620.671 532.562 C 620.325 528.431, 619.667 527.083, 616.643 524.312 L 613.029 521 568.897 521 L 524.765 521 520.882 524.882 M 155.500 523.567 C 150.913 525.944, 146.163 530.975, 144.904 534.790 C 142.137 543.175, 145.891 554.142, 152.957 558.316 C 157.005 560.707, 164.864 561.530, 169.388 560.037 C 186.579 554.364, 187.480 530.530, 170.768 523.548 C 166.033 521.569, 159.339 521.578, 155.500 523.567 M 251.500 563.835 C 235.963 571.221, 236.407 592.841, 252.232 599.452 C 259.985 602.692, 268.015 600.878, 273.825 594.574 C 278.285 589.735, 279.548 585.554, 278.733 578.323 C 278.160 573.237, 276.131 570.041, 270.670 565.621 C 265.853 561.722, 257.568 560.950, 251.500 563.835 M 459.418 586.969 C 455.924 588.382, 452.159 593.749, 451.500 598.255 C 451.159 600.590, 451.019 620.050, 451.190 641.500 C 451.468 676.535, 451.680 680.829, 453.267 683.733 C 458.191 692.744, 472.633 691.909, 476.613 682.383 C 477.719 679.736, 478 670.741, 478 637.933 C 478 592.405, 477.916 591.749, 471.580 587.886 C 468.371 585.929, 462.992 585.523, 459.418 586.969 M 537.121 600.710 C 532.104 603.182, 529.799 607.461, 530.308 613.357 L 530.727 618.214 559.613 647.132 C 591.005 678.557, 592.006 679.303, 599.463 676.820 C 606.729 674.400, 610.257 665.151, 606.566 658.200 C 604.368 654.060, 550.883 601.237, 547.685 600.047 C 543.785 598.597, 541.065 598.767, 537.121 600.710" stroke="none" fill="black" fill-rule="evenodd"/>
</svg>