<svg xmlns="http://www.w3.org/2000/svg" width="800" height="800" viewBox="0 0 800 800" version="1.1">
	<path d="M 92.346 10.144 C 79.130 11.403, 64.896 15.321, 54 20.698 C 45.920 24.686, 43.072 26.815, 34.943 34.943 C 26.815 43.072, 24.686 45.920, 20.698 54 C 15.036 65.473, 11.509 78.785, 10.075 94.096 C 8.583 110.024, 8.583 689.976, 10.075 705.904 C 11.509 721.215, 15.036 734.527, 20.698 746 C 24.686 754.080, 26.815 756.928, 34.943 765.057 C 43.072 773.185, 45.920 775.314, 54 779.302 C 65.473 784.964, 78.785 788.491, 94.096 789.925 C 110.024 791.417, 689.976 791.417, 705.904 789.925 C 721.215 788.491, 734.527 784.964, 746 779.302 C 754.080 775.314, 756.928 773.185, 765.057 765.057 C 773.185 756.928, 775.314 754.080, 779.302 746 C 784.964 734.527, 788.491 721.215, 789.925 705.904 C 791.417 689.976, 791.417 110.024, 789.925 94.096 C 788.491 78.785, 784.964 65.473, 779.302 54 C 775.314 45.920, 773.185 43.072, 765.057 34.943 C 756.928 26.815, 754.080 24.686, 746 20.698 C 734.527 15.036, 721.215 11.509, 705.904 10.075 C 691.856 8.759, 106.191 8.825, 92.346 10.144 M 84.842 12.536 C 50.292 17.944, 27.074 36.428, 17.118 66.453 C 10.572 86.195, 10.945 64.589, 11.265 404.690 C 11.541 697.687, 11.647 713.879, 13.349 720.896 C 22.472 758.506, 42.954 778.676, 80.178 786.705 C 88.083 788.410, 104.109 788.500, 400 788.500 C 695.891 788.500, 711.917 788.410, 719.822 786.705 C 757.441 778.591, 778.591 757.441, 786.705 719.822 C 788.410 711.917, 788.500 695.891, 788.500 400 C 788.500 104.109, 788.410 88.083, 786.705 80.178 C 778.676 42.954, 758.507 22.472, 720.896 13.349 C 713.873 11.646, 697.848 11.546, 403.500 11.368 C 146.911 11.213, 92.008 11.415, 84.842 12.536 M 297.367 122.918 C 290.750 126.953, 291 124.997, 291 172.772 C 291 219.483, 291.036 219.828, 296.303 223.279 C 302.630 227.425, 310.337 225.678, 314.730 219.102 L 317 215.704 317 173.587 C 317 134.706, 316.860 131.207, 315.173 128.062 C 311.713 121.610, 303.434 119.219, 297.367 122.918 M 169.619 135.034 C 162.993 137.019, 158.814 144.877, 160.948 151.342 C 161.658 153.493, 171.499 164.013, 190.754 183.203 C 221.538 213.883, 222.549 214.634, 229.510 212.003 C 236.702 209.285, 240.307 202.491, 238.103 195.813 C 236.763 191.751, 181.966 136.640, 177.685 135.047 C 174.458 133.847, 173.590 133.846, 169.619 135.034 M 576 147.624 C 574.625 147.890, 571.124 148.775, 568.220 149.590 C 562.636 151.159, 425.993 207.440, 417.561 211.645 C 409.772 215.528, 403.202 220.810, 397.311 227.925 C 382.171 246.207, 377.913 270.526, 386.004 292.500 C 392.069 308.972, 446.261 437.834, 449.084 442.499 C 455.159 452.536, 466.710 462.633, 477.866 467.660 C 489.091 472.717, 505.762 474.473, 518.201 471.907 C 524.071 470.696, 662.388 413.935, 673.500 408.177 C 683.048 403.229, 695.249 390.994, 700.303 381.300 C 707.458 367.576, 709.700 351.686, 706.568 336.909 C 704.896 329.020, 646.356 187.058, 641.384 178.835 C 630.020 160.040, 609.924 148.211, 588.093 147.467 C 582.817 147.287, 577.375 147.358, 576 147.624 M 579.914 174.055 C 574.216 174.904, 436.152 231.527, 427 236.769 C 414.559 243.893, 406.728 259.518, 408.413 273.853 C 408.868 277.729, 417.279 299.178, 437.644 348.397 C 472.159 431.819, 470.772 428.713, 476.089 434.481 C 485.593 444.791, 500.671 449.393, 513.500 445.900 C 519.190 444.350, 654.309 388.432, 661.313 384.729 C 675.611 377.167, 684.082 360.299, 681.245 345.040 C 679.836 337.464, 622.081 197.438, 617.402 190.254 C 609.659 178.366, 594.615 171.865, 579.914 174.055 M 564.500 226.490 C 562.293 227.264, 558.852 229.731, 556.823 231.993 C 549.464 240.199, 549.954 252.112, 557.949 259.335 C 567.890 268.316, 582.497 265.670, 588.403 253.818 C 589.831 250.952, 590.990 247.008, 590.978 245.054 C 590.929 237.177, 583.981 228.199, 576.277 226.060 C 571.400 224.706, 569.379 224.779, 564.500 226.490 M 151.656 268.288 C 146.830 272.840, 145.935 277.928, 148.958 283.627 C 152.918 291.092, 152.288 291, 199.651 290.996 C 239.646 290.993, 241.644 290.904, 244.759 289.005 C 248.515 286.715, 251.991 281.535, 251.996 278.218 C 252.003 274.160, 249.203 269.094, 245.810 267.026 C 242.624 265.083, 240.867 265.007, 198.821 265.004 L 155.142 265 151.656 268.288 M 471.239 266.653 C 456.655 273.842, 456.696 294.185, 471.309 301.467 C 479.218 305.408, 486.349 304.390, 493.015 298.367 C 500.882 291.260, 501.379 278.903, 494.129 270.644 C 489.453 265.315, 478.003 263.319, 471.239 266.653 M 599.840 319.887 C 593.547 323.878, 590.615 330.004, 591.191 337.962 C 591.918 348.011, 598.312 354.661, 608.232 355.684 C 626.096 357.528, 636.618 336.884, 624.721 323.334 C 618.465 316.210, 607.938 314.751, 599.840 319.887 M 188.546 344.994 C 176.761 348.169, 167.388 353.539, 158.931 361.962 C 154.769 366.108, 149.979 371.975, 148.287 375 C 143.070 384.328, 84.898 525.994, 83.418 532.973 C 78.865 554.450, 85.394 576.413, 100.978 592.044 C 105.115 596.194, 110.975 600.989, 114 602.701 C 122.229 607.357, 264.108 665.813, 271.290 667.506 C 285.108 670.764, 301.108 668.694, 314.988 661.852 C 325.321 656.758, 337.706 644.972, 342.678 635.500 C 348.100 625.172, 404.839 486.788, 406.444 479.975 C 409.765 465.886, 407.743 449.991, 400.852 436.012 C 395.742 425.647, 383.954 413.271, 374.500 408.346 C 363.456 402.593, 228.167 346.961, 220.372 344.967 C 210.552 342.456, 197.928 342.466, 188.546 344.994 M 510.204 358.128 C 501.971 362.203, 497.460 371.863, 499.913 380.163 C 504.927 397.126, 526.292 400.368, 535.464 385.559 C 545.715 369.007, 527.714 349.461, 510.204 358.128 M 193.776 370.415 C 183.360 373.424, 173.797 381.675, 169.543 391.322 C 168.288 394.170, 154.349 427.694, 138.568 465.819 C 120.655 509.095, 109.479 537.390, 108.820 541.131 C 106.438 554.654, 112.953 570.064, 124.365 577.902 C 129.698 581.565, 269.806 639.538, 278.525 641.690 C 284.134 643.074, 286.129 643.138, 291.697 642.112 C 303.159 640, 313.402 633.301, 318.498 624.584 C 321.905 618.756, 378.848 480.683, 380.568 474.076 C 382.392 467.075, 382.374 462.856, 380.489 455.620 C 377.759 445.139, 370.418 435.773, 361.349 431.202 C 359.232 430.134, 325.158 415.881, 285.628 399.528 C 216.050 370.743, 213.512 369.782, 206.128 369.422 C 201.534 369.198, 196.621 369.593, 193.776 370.415 M 213.384 407.850 C 203.259 412.603, 199.132 426.149, 204.918 435.634 C 208.154 440.939, 213.481 444.292, 219.460 444.788 C 228.690 445.554, 235.365 442.126, 239.171 434.665 C 243.631 425.923, 240.909 414.981, 232.892 409.425 C 227.743 405.857, 219.114 405.160, 213.384 407.850 M 310.500 447.421 C 306.735 449.107, 301.456 454.616, 300.061 458.315 C 296.541 467.652, 300.773 478.775, 309.442 482.972 C 316.128 486.208, 324.489 485.552, 329.735 481.379 C 342.053 471.580, 339.929 453.464, 325.768 447.548 C 321.261 445.664, 314.549 445.609, 310.500 447.421 M 187.500 468.888 C 179.473 473.495, 175.324 483.392, 178.009 491.528 C 182.365 504.725, 198.745 509.605, 209.349 500.864 C 214.382 496.715, 216.323 492.578, 216.323 486 C 216.323 477.552, 211.803 470.904, 203.782 467.553 C 198.174 465.211, 193.197 465.619, 187.500 468.888 M 286.007 507.593 C 278.524 510.838, 274 517.773, 274 526 C 274 533.889, 277.634 539.855, 284.500 543.237 C 294.712 548.267, 305.577 544.520, 310.662 534.214 C 312.850 529.778, 313.171 528.090, 312.653 523.720 C 311.115 510.730, 297.614 502.559, 286.007 507.593 M 533.071 526.752 C 528.099 529.287, 525.500 533.319, 525.500 538.500 C 525.500 543.681, 528.099 547.713, 533.071 550.248 C 536.170 551.829, 540.440 551.997, 577.500 551.997 C 614.540 551.997, 618.836 551.828, 621.980 550.248 C 626.339 548.058, 630 542.696, 630 538.500 C 630 534.304, 626.339 528.942, 621.980 526.752 C 618.836 525.172, 614.540 525.003, 577.500 525.003 C 540.440 525.003, 536.170 525.171, 533.071 526.752 M 165.637 527.465 C 152.567 532.124, 148.175 548.296, 157.191 558.564 C 165.243 567.736, 177.083 568.180, 185.632 559.632 C 193.669 551.594, 193.657 540.473, 185.601 532.365 C 179.683 526.408, 173.121 524.797, 165.637 527.465 M 262.500 567.207 C 254.239 570.094, 249 577.388, 249 586 C 249 601.988, 266.334 611.220, 279.422 602.202 C 291.826 593.656, 290.342 575.336, 276.694 568.535 C 271.313 565.853, 267.415 565.489, 262.500 567.207 M 465.627 593.205 C 460.109 597.318, 460 598.280, 460 643 C 460 676.477, 460.266 684.701, 461.440 687.510 C 466.058 698.564, 482.848 696.704, 486.059 684.783 C 486.705 682.382, 486.977 666.066, 486.793 640.735 C 486.521 603.381, 486.365 600.277, 484.614 597.386 C 480.711 590.938, 471.414 588.892, 465.627 593.205 M 543.006 607.759 C 539.334 611.431, 539 612.209, 539 617.092 L 539 622.419 567.250 650.782 C 582.788 666.382, 596.715 679.787, 598.200 680.573 C 603.996 683.636, 611.531 681.457, 615.040 675.701 C 617.348 671.917, 617.525 668.142, 615.600 663.718 C 614.831 661.948, 601.593 647.940, 586.183 632.589 L 558.165 604.678 552.588 604.216 C 547.170 603.766, 546.898 603.867, 543.006 607.759" stroke="none" fill="black" fill-rule="evenodd"/>
</svg>