<svg width="800" height="800" xmlns="http://www.w3.org/2000/svg">
 <g>
  <title>Layer 1</title>
  <rect stroke-width="0" stroke="#000" rx="100" id="svg_4" height="780" width="780" y="10" x="10" opacity="undefined" fill="#fff"/>
  <g stroke="null" id="svg_11">
   <path stroke="null" id="svg_8" clip-rule="nonzero" fill="#000000" fill-rule="evenodd" stroke-width="2" stroke-miterlimit="4" stroke-dashoffset="0" d="m303.79782,121.20982c-7.2018,0 -13.04013,5.83833 -13.04013,13.04013l0,78.24075c0,7.2018 5.83833,13.04013 13.04013,13.04013c7.2018,0 13.04012,-5.83833 13.04012,-13.04013l0,-78.24075c0,-7.2018 -5.83832,-13.04013 -13.04012,-13.04013zm-130.223,13.21839c-3.33723,0 -6.67354,1.27402 -9.21976,3.82036c-5.09243,5.09243 -5.09243,13.34709 0,18.43952l52.1605,52.16051c5.09243,5.09243 13.34709,5.09243 18.43952,0c5.09243,-5.09243 5.09243,-13.34709 0,-18.43952l-52.1605,-52.16051c-2.54621,-2.54621 -5.88253,-3.82036 -9.21976,-3.82036zm412.41953,12.86187c-8.46904,-0.07825 -17.10134,1.50665 -25.39264,4.94103l-138.32209,57.30522c-33.16508,13.73738 -49.04431,52.03793 -35.30001,85.21918l57.27966,138.27123c13.74416,33.18125 52.05423,49.06269 85.21931,35.32544l138.32209,-57.30522c33.16508,-13.73738 49.0443,-52.03793 35.30001,-85.21918l-57.27967,-138.27123c-10.30822,-24.88591 -34.42006,-40.04218 -59.82666,-40.26647zm-0.05099,25.9784c15.25852,0.03912 29.49533,9.09014 35.78393,24.27198l57.25424,138.2711c8.3848,20.24232 -0.93237,42.73575 -21.16465,51.11625l-138.32208,57.30522c-20.23241,8.3805 -42.75714,-0.94801 -51.14181,-21.1902l-57.25424,-138.2711c-8.38467,-20.24232 0.93224,-42.73575 21.16465,-51.11625l138.32209,-57.30522c5.05813,-2.09464 10.2717,-3.09416 15.35787,-3.08178zm-14.82297,52.26235a19.56019,19.56019 0 0 0 -19.56019,19.56019a19.56019,19.56019 0 0 0 19.56019,19.56019a19.56019,19.56019 0 0 0 19.56019,-19.56019a19.56019,19.56019 0 0 0 -19.56019,-19.56019zm-410.76395,39.12038c-7.2018,0 -13.04013,5.83832 -13.04013,13.04012c0,7.2018 5.83833,13.04013 13.04013,13.04013l78.24075,0c7.2018,0 13.04013,-5.83833 13.04013,-13.04013c0,-7.2018 -5.83833,-13.04012 -13.04013,-13.04012l-78.24075,0zm319.48307,0a19.56019,19.56019 0 0 0 -19.56018,19.56018a19.56019,19.56019 0 0 0 19.56018,19.56019a19.56019,19.56019 0 0 0 19.56019,-19.56019a19.56019,19.56019 0 0 0 -19.56019,-19.56018zm130.40126,52.1605a19.56019,19.56019 0 0 0 -19.56019,19.56019a19.56019,19.56019 0 0 0 19.56019,19.56018a19.56019,19.56019 0 0 0 19.56019,-19.56018a19.56019,19.56019 0 0 0 -19.56019,-19.56019zm-406.0776,26.08025c-25.40659,0.22429 -49.51948,15.37822 -59.82679,40.26647l-57.27966,138.27123c-13.74416,33.18126 2.13441,71.48206 35.30001,85.21918l138.32209,57.30522c33.16495,13.73725 71.47645,-2.14105 85.2193,-35.32544l57.27967,-138.27123c13.74429,-33.18125 -2.13454,-71.48192 -35.30001,-85.21917l-138.32209,-57.30523c-8.2913,-3.43437 -16.92374,-5.01588 -25.39252,-4.94103zm314.79672,13.04012a19.56019,19.56019 0 0 0 -19.56019,19.56019a19.56019,19.56019 0 0 0 19.56019,19.56019a19.56019,19.56019 0 0 0 19.56019,-19.56019a19.56019,19.56019 0 0 0 -19.56019,-19.56019zm-314.74586,12.93829c5.0863,-0.01239 10.29974,0.98583 15.35788,3.08177l138.32209,57.30522c20.23253,8.3805 29.54879,30.8742 21.16464,51.11625l-57.25423,138.2711c-8.3848,20.24219 -30.90914,29.5711 -51.14181,21.19021l-138.32209,-57.30523c-20.23254,-8.38062 -29.54879,-30.87419 -21.16465,-51.11624l57.25424,-138.27111c6.2886,-15.18183 20.52529,-24.23507 35.78393,-24.27197zm17.6755,37.26111a19.56019,19.56019 0 0 0 -19.56019,19.56019a19.56019,19.56019 0 0 0 19.56019,19.56019a19.56019,19.56019 0 0 0 19.56019,-19.56019a19.56019,19.56019 0 0 0 -19.56019,-19.56019zm96.37474,39.93539a19.56019,19.56019 0 0 0 -19.56019,19.56019a19.56019,19.56019 0 0 0 19.56019,19.56018a19.56019,19.56019 0 0 0 19.56019,-19.56018a19.56019,19.56019 0 0 0 -19.56019,-19.56019zm-121.33432,20.29878a19.56019,19.56019 0 0 0 -19.56019,19.56019a19.56019,19.56019 0 0 0 19.56019,19.56018a19.56019,19.56019 0 0 0 19.56019,-19.56018a19.56019,19.56019 0 0 0 -19.56019,-19.56019zm96.37461,39.93538a19.56019,19.56019 0 0 0 -19.56019,19.56019a19.56019,19.56019 0 0 0 19.56019,19.56019a19.56019,19.56019 0 0 0 19.56019,-19.56019a19.56019,19.56019 0 0 0 -19.56019,-19.56019zm245.21552,19.15269c-7.11535,0.10432 -13.04013,5.90091 -13.04013,13.04012c0,7.2018 5.83833,13.04013 13.04013,13.04013l78.24075,0c7.2018,0 13.04013,-5.83833 13.04013,-13.04013c0,-7.2018 -5.83833,-13.04012 -13.04013,-13.04012l-78.24075,0zm-366.54972,1.14609a19.56019,19.56019 0 0 0 -19.56018,19.56019a19.56019,19.56019 0 0 0 19.56018,19.56019a19.56019,19.56019 0 0 0 19.56019,-19.56019a19.56019,19.56019 0 0 0 -19.56019,-19.56019zm96.37462,39.93539a19.56019,19.56019 0 0 0 -19.56019,19.56019a19.56019,19.56019 0 0 0 19.56019,19.56018a19.56019,19.56019 0 0 0 19.56019,-19.56018a19.56019,19.56019 0 0 0 -19.56019,-19.56019zm204.97447,24.11914c-7.13921,0 -12.93972,5.92479 -13.04012,13.04013l0,78.24075c0,7.2018 5.83832,13.04013 13.04012,13.04013c7.2018,0 13.04013,-5.83833 13.04013,-13.04013l0,-78.24075c0,-7.2018 -5.83833,-13.04013 -13.04013,-13.04013zm78.41901,13.21839c-3.33723,0 -6.67354,1.27402 -9.21976,3.82036c-5.02983,5.02997 -5.06074,13.13011 -0.15283,18.23584l-0.02543,0.02543l0.17826,0.17825l51.98225,51.98225c5.09243,5.09243 13.52535,5.26834 18.61777,0.17826c5.09243,-5.09243 4.91652,-13.52535 -0.17825,-18.61778l-51.98225,-51.98225l-0.17826,-0.17825l-0.02542,0.02542c-2.52105,-2.42233 -5.761,-3.66753 -9.01608,-3.66753z"/>
   <text stroke="null" transform="matrix(15.590521164779794,0,0,14.416324935454174,-1.7135470573435896,-1.1018559435553925) " id="svg_9" font-family="'Helvetica Neue', Helvetica, Arial-Unicode, Arial, Sans-serif" font-weight="bold" font-size="5px" fill="#000000" y="69.48425" x="5.37817">Created by ICONCRAFT</text>
   <text stroke="null" transform="matrix(15.590521164779794,0,0,14.416324935454174,-1.7135470573435896,-1.1018559435553925) " id="svg_10" font-family="'Helvetica Neue', Helvetica, Arial-Unicode, Arial, Sans-serif" font-weight="bold" font-size="5px" fill="#000000" y="74.48425" x="5.37817">from the Noun Project</text>
  </g>
 </g>

</svg>